<svg width="25" height="128" viewBox="0 0 25 128" fill="none" xmlns="http://www.w3.org/2000/svg">
<path d="M20.8901 127.51C22.9998 127.51 24.7101 125.8 24.7101 123.69C24.7101 121.58 22.9998 119.87 20.8901 119.87C18.7803 119.87 17.0701 121.58 17.0701 123.69C17.0701 125.8 18.7803 127.51 20.8901 127.51Z" fill="#D1BBFF"/>
<path d="M3.82 127.51C5.92973 127.51 7.64 125.8 7.64 123.69C7.64 121.58 5.92973 119.87 3.82 119.87C1.71027 119.87 0 121.58 0 123.69C0 125.8 1.71027 127.51 3.82 127.51Z" fill="#D1BBFF"/>
<path d="M20.8901 110.44C22.9998 110.44 24.7101 108.73 24.7101 106.62C24.7101 104.51 22.9998 102.8 20.8901 102.8C18.7803 102.8 17.0701 104.51 17.0701 106.62C17.0701 108.73 18.7803 110.44 20.8901 110.44Z" fill="#D1BBFF"/>
<path d="M3.82 110.44C5.92973 110.44 7.64 108.73 7.64 106.62C7.64 104.51 5.92973 102.8 3.82 102.8C1.71027 102.8 0 104.51 0 106.62C0 108.73 1.71027 110.44 3.82 110.44Z" fill="#D1BBFF"/>
<path d="M20.8901 93.3602C22.9998 93.3602 24.7101 91.65 24.7101 89.5402C24.7101 87.4305 22.9998 85.7202 20.8901 85.7202C18.7803 85.7202 17.0701 87.4305 17.0701 89.5402C17.0701 91.65 18.7803 93.3602 20.8901 93.3602Z" fill="#D1BBFF"/>
<path d="M3.82 93.3602C5.92973 93.3602 7.64 91.65 7.64 89.5402C7.64 87.4305 5.92973 85.7202 3.82 85.7202C1.71027 85.7202 0 87.4305 0 89.5402C0 91.65 1.71027 93.3602 3.82 93.3602Z" fill="#D1BBFF"/>
<path d="M20.8901 76.2902C22.9998 76.2902 24.7101 74.5799 24.7101 72.4702C24.7101 70.3604 22.9998 68.6501 20.8901 68.6501C18.7803 68.6501 17.0701 70.3604 17.0701 72.4702C17.0701 74.5799 18.7803 76.2902 20.8901 76.2902Z" fill="#D1BBFF"/>
<path d="M3.82 76.2902C5.92973 76.2902 7.64 74.5799 7.64 72.4702C7.64 70.3604 5.92973 68.6501 3.82 68.6501C1.71027 68.6501 0 70.3604 0 72.4702C0 74.5799 1.71027 76.2902 3.82 76.2902Z" fill="#D1BBFF"/>
<path d="M20.8901 59.2201C22.9998 59.2201 24.7101 57.5098 24.7101 55.4001C24.7101 53.2903 22.9998 51.5801 20.8901 51.5801C18.7803 51.5801 17.0701 53.2903 17.0701 55.4001C17.0701 57.5098 18.7803 59.2201 20.8901 59.2201Z" fill="#D1BBFF"/>
<path d="M3.82 59.2201C5.92973 59.2201 7.64 57.5098 7.64 55.4001C7.64 53.2903 5.92973 51.5801 3.82 51.5801C1.71027 51.5801 0 53.2903 0 55.4001C0 57.5098 1.71027 59.2201 3.82 59.2201Z" fill="#D1BBFF"/>
<path d="M20.8901 42.1502C22.9998 42.1502 24.7101 40.44 24.7101 38.3303C24.7101 36.2205 22.9998 34.5103 20.8901 34.5103C18.7803 34.5103 17.0701 36.2205 17.0701 38.3303C17.0701 40.44 18.7803 42.1502 20.8901 42.1502Z" fill="#D1BBFF"/>
<path d="M3.82 42.1502C5.92973 42.1502 7.64 40.44 7.64 38.3303C7.64 36.2205 5.92973 34.5103 3.82 34.5103C1.71027 34.5103 0 36.2205 0 38.3303C0 40.44 1.71027 42.1502 3.82 42.1502Z" fill="#D1BBFF"/>
<path d="M20.8901 25.0802C22.9998 25.0802 24.7101 23.3699 24.7101 21.2602C24.7101 19.1505 22.9998 17.4402 20.8901 17.4402C18.7803 17.4402 17.0701 19.1505 17.0701 21.2602C17.0701 23.3699 18.7803 25.0802 20.8901 25.0802Z" fill="#D1BBFF"/>
<path d="M3.82 25.0802C5.92973 25.0802 7.64 23.3699 7.64 21.2602C7.64 19.1505 5.92973 17.4402 3.82 17.4402C1.71027 17.4402 0 19.1505 0 21.2602C0 23.3699 1.71027 25.0802 3.82 25.0802Z" fill="#D1BBFF"/>
<path d="M20.8901 8.01013C22.9998 8.01013 24.7101 6.29985 24.7101 4.19012C24.7101 2.0804 22.9998 0.370117 20.8901 0.370117C18.7803 0.370117 17.0701 2.0804 17.0701 4.19012C17.0701 6.29985 18.7803 8.01013 20.8901 8.01013Z" fill="#D1BBFF"/>
<path d="M3.82 8.01013C5.92973 8.01013 7.64 6.29985 7.64 4.19012C7.64 2.0804 5.92973 0.370117 3.82 0.370117C1.71027 0.370117 0 2.0804 0 4.19012C0 6.29985 1.71027 8.01013 3.82 8.01013Z" fill="#D1BBFF"/>
</svg>
